<?xml version="1.0" encoding="UTF-8" standalone="no"?>
<!-- Generator: Adobe Illustrator 14.0.0, SVG Export Plug-In . SVG Version: 6.00 Build 43363)  -->

<svg
   version="1.1"
   id="Layer_1"
   x="0px"
   y="0px"
   width="1000"
   height="670.96637"
   viewBox="0 0 1000 670.96638"
   enable-background="new 0 0 355.081 236.054"
   xml:space="preserve"
   sodipodi:docname="Maxis.svg"
   inkscape:version="1.1.1 (3bf5ae0d25, 2021-09-20)"
   xmlns:inkscape="http://www.inkscape.org/namespaces/inkscape"
   xmlns:sodipodi="http://sodipodi.sourceforge.net/DTD/sodipodi-0.dtd"
   xmlns="http://www.w3.org/2000/svg"
   xmlns:svg="http://www.w3.org/2000/svg">
<g
   id="g27302"><path
     d="m 0,406.40607 h 64.137593 v -75.20471 c 0,-17.37488 8.466162,-23.85805 21.806782,-23.85805 11.288216,0 17.188875,4.66788 17.188875,18.93086 v 80.1319 h 62.08519 v -75.20471 c 0,-17.37488 8.46616,-23.85805 21.80678,-23.85805 11.28821,0 17.18887,4.66788 17.18887,18.93086 v 80.1319 h 64.1376 v -97.76612 c 0,-34.49045 -24.62884,-47.97542 -55.41488,-47.97542 -25.91159,0 -42.84392,10.63238 -51.56662,23.59872 -7.43997,-14.00364 -18.72818,-23.59872 -46.43562,-23.59872 -26.681243,0 -42.330815,10.11373 -52.336279,23.33939 H 62.08519 v -19.4495 H 0 Z"
     id="path11808"
     style="font-weight:900;font-stretch:expanded;font-size:255.554px;line-height:1.25;font-family:'Helvetica Neue LT Std';-inkscape-font-specification:'Helvetica Neue LT Std Heavy Expanded';letter-spacing:-1.98px;fill:#00aced;fill-opacity:1;stroke-width:6.44835" /><path
     d="m 361.43059,307.60264 c 3.0786,-13.74431 17.70197,-16.07825 32.32533,-16.07825 18.21509,0 29.75986,4.40855 29.75986,13.74431 0,7.7798 -4.36137,10.89172 -17.18888,11.66969 l -54.13214,2.59327 c -47.46182,2.07462 -65.67688,18.67152 -65.67688,44.60418 0,36.30573 27.19432,47.97543 70.29479,47.97543 34.12121,0 55.92799,-6.22383 70.29481,-19.70882 0.25655,5.18654 1.0262,9.85441 2.30895,14.00362 h 65.67689 c -3.07859,-4.66786 -5.90066,-11.15102 -5.90066,-22.04275 v -68.46223 c 0,-42.27023 -25.91158,-57.05185 -91.33191,-57.05185 -33.86467,0 -57.21074,2.59326 -72.86033,9.8544 -15.90612,7.52049 -23.85917,19.4495 -27.70743,38.899 z m 63.62449,40.45495 c 0,24.3767 -23.85918,29.82256 -45.40942,29.82256 -15.90613,0 -23.85919,-6.22382 -23.85919,-16.07824 0,-9.07643 5.64412,-12.96634 17.44543,-14.00363 22.83299,-2.07462 41.04805,-3.63059 51.82318,-5.96453 z"
     id="path11810"
     style="font-weight:900;font-stretch:expanded;font-size:255.554px;line-height:1.25;font-family:'Helvetica Neue LT Std';-inkscape-font-specification:'Helvetica Neue LT Std Heavy Expanded';letter-spacing:-1.98px;fill:#ffc10e;fill-opacity:1;stroke-width:6.44835" /><path
     d="m 579.73727,406.40607 27.70745,-40.19561 27.70743,40.19561 h 81.58302 l -65.67689,-74.1674 60.28934,-67.68425 H 632.8432 l -25.39848,38.12102 -25.39848,-38.12102 h -78.50442 l 59.26313,67.68425 -64.6507,74.1674 z"
     style="font-weight:900;font-stretch:expanded;font-size:255.554px;line-height:1.25;font-family:'Helvetica Neue LT Std';-inkscape-font-specification:'Helvetica Neue LT Std Heavy Expanded';letter-spacing:-4.15px;fill:#bb1a8b;fill-opacity:1;stroke-width:6.44835"
     id="path11812" /><path
     d="m 917.39079,356.61538 c 6.6703,0.77797 8.7227,4.66787 8.7227,8.81709 0,6.48316 -4.87445,10.89172 -21.29367,10.89172 -7.18342,0 -13.59718,-0.51865 -18.21509,-2.59325 -4.36134,-2.07461 -7.18341,-5.7052 -7.95305,-11.41039 h -75.42582 c 2.05241,35.78709 31.04261,49.79072 97.74571,49.79072 67.72928,0 99.02843,-14.00363 99.02843,-50.5687 0,-24.11737 -13.08406,-39.67697 -47.71836,-42.78888 l -61.059,-5.44585 c -13.85371,-1.29665 -17.18887,-5.18654 -17.18887,-8.81712 0,-5.44586 3.59171,-9.85441 22.83298,-9.85441 9.49237,0 15.39302,1.55596 18.98473,3.63058 3.59171,2.07462 4.87447,5.18652 4.87447,8.81709 h 72.34718 c -1.28275,-40.19563 -49.25766,-48.23474 -92.87123,-48.23474 -62.59828,0 -93.38433,14.26296 -93.38433,47.71609 0,24.63603 10.77512,39.67698 47.97492,43.56689 z"
     id="path11814"
     style="font-weight:900;font-stretch:expanded;font-size:255.554px;line-height:1.25;font-family:'Helvetica Neue LT Std';-inkscape-font-specification:'Helvetica Neue LT Std Heavy Expanded';letter-spacing:-1.98px;fill:#50b747;fill-opacity:1;stroke-width:6.44835" /><path
     id="path13176"
     style="display:inline;opacity:1;fill:#000000;stroke-width:0.822932"
     d="M 454.52437,0 C 314.55396,0 195.1657,84.878871 144.72931,206.16993 196.09744,106.86379 299.59141,39.247071 419.5247,39.247071 c 132.37295,0 244.74462,82.351289 289.06325,198.797369 h 67.10183 C 734.12723,100.01121 606.45817,0 454.52437,0 Z M 717.21255,432.91592 C 680.65947,563.01763 561.61997,657.90863 419.5247,657.90863 c -40.37004,0 -78.84351,-7.73888 -114.13879,-21.68434 44.88658,22.21055 95.48497,34.74206 149.13846,34.74206 151.93601,0 279.60676,-100.01408 321.1674,-238.05043 z" /><path
     style="opacity:1;fill:#eb1c23;fill-opacity:1;stroke-width:0.822932"
     d="m 717.30241,264.55529 c 7.47321,26.70892 11.55408,54.8632 11.55408,84.02156 0,19.78434 -1.91682,39.09528 -5.43358,57.82822 h 59.06831 c 4.88381,-22.85626 7.51433,-46.56601 7.51433,-70.92189 0,-24.35792 -2.62973,-48.06986 -7.51433,-70.92789 z"
     id="path13174" /></g></svg>
