<?xml version="1.0" encoding="UTF-8"?>
<svg width="170px" height="26px" viewBox="0 0 170 26" version="1.1" xmlns="http://www.w3.org/2000/svg" xmlns:xlink="http://www.w3.org/1999/xlink">
    <title>6A7B189D-04E6-42ED-9730-25E2ED9B0271</title>
    <g id="Resources" stroke="none" stroke-width="1" fill="none" fill-rule="evenodd">
        <g id="Blog-Alt" transform="translate(-40.000000, -27.000000)" fill="#000000" fill-rule="nonzero">
            <g id="SL-Logo---Black" transform="translate(40.000000, 27.000000)">
                <path d="M12.9292883,14.196484 C12.9292883,11.5077559 11.822606,9.76008273 7.77376832,8.25439504 C5.88431074,7.55532575 5.83032624,7.52843847 5.56040373,7.36711479 C4.83161295,6.91003102 4.45372143,6.29162358 4.45372143,5.56566701 C4.45372143,4.38262668 5.29048122,3.54912099 6.50513252,3.54912099 C7.74677607,3.54912099 8.5025591,4.30196484 8.61052811,5.64632885 L12.4434278,5.64632885 C12.254482,2.15098242 9.74420265,3.55271368e-15 6.53212477,3.55271368e-15 C3.32004689,3.55271368e-15 0.72879078,2.50051706 0.72879078,5.64632885 C0.72879078,8.14684592 2.21336459,10.0558428 4.88559745,11.0506722 C7.53083806,12.0455016 7.74677607,12.1261634 8.34060559,12.5832472 C8.93443512,13.0403309 9.25834213,13.7931748 9.25834213,14.5997932 C9.25834213,16.024819 8.15165984,17.0196484 6.55911702,17.0196484 C4.9125897,17.0196484 4.02184542,16.21303 3.85989191,14.5460186 L0,14.5460186 C0.323907013,18.3102378 3.05012438,20.5687694 6.55911702,20.5687694 C10.1490864,20.5687694 12.9292883,17.7993795 12.9292883,14.196484 Z" id="Path"></path>
                <path d="M28.4101555,20.2192347 L28.4101555,5.32368149 L24.8201861,5.32368149 L24.8201861,12.3412616 C24.8201861,14.3309204 24.6582326,15.2450879 24.2533489,15.9172699 C23.7135038,16.7776629 22.7417828,17.2885212 21.5271315,17.2885212 C19.7996274,17.2885212 18.6929451,16.5625646 18.6929451,12.6101344 L18.6929451,5.32368149 L15.1029757,5.32368149 L15.1029757,13.3092037 C15.1029757,18.5522234 17.3163403,20.5687694 20.7983407,20.5687694 C22.6068216,20.5687694 23.7404961,20.1116856 25.0901087,18.7942089 L25.0901087,20.2192347 L28.4101555,20.2192347 Z" id="Path"></path>
                <path d="M46.9432859,12.7176836 C46.9432859,8.22750776 43.8121848,4.97414685 39.4934246,4.97414685 C37.4690058,4.97414685 35.7415754,5.72699069 34.5809086,7.07135471 L34.5809086,5.32368149 L31.287854,5.32368149 L31.287854,25.1933816 L34.8778234,25.1933816 L34.8778234,18.8210962 C36.227436,20.0310238 37.6309593,20.5687694 39.4664323,20.5687694 C43.7851925,20.5687694 46.9432859,17.2347466 46.9432859,12.7176836 Z M43.3263243,12.7983454 C43.3263243,15.3257497 41.4638589,17.2885212 39.0885408,17.2885212 C36.5512692,17.2885212 34.6618854,15.352637 34.6618854,12.7445708 C34.6618854,10.1902792 36.5512692,8.25439504 39.0345563,8.25439504 C41.4639327,8.25439504 43.3263243,10.2171665 43.3263243,12.7983454 Z" id="Shape"></path>
                <path d="M64.7624491,12.7176836 C64.7624491,8.22750776 61.631348,4.97414685 57.3125878,4.97414685 C55.288169,4.97414685 53.5606649,5.72699069 52.3999981,7.07135471 L52.3999981,5.32368149 L49.1069435,5.32368149 L49.1069435,25.1933816 L52.6969129,25.1933816 L52.6969129,18.8210962 C54.0465254,20.0310238 55.4501225,20.5687694 57.2855955,20.5687694 C61.6043557,20.5687694 64.7624491,17.2347466 64.7624491,12.7176836 Z M61.1454875,12.7983454 C61.1454875,15.3257497 59.2830221,17.2885212 56.907704,17.2885212 C54.3704324,17.2885212 52.4809748,15.352637 52.4809748,12.7445708 C52.4809748,10.1902792 54.3704324,8.25439504 56.8537195,8.25439504 C59.2830221,8.25439504 61.1454875,10.2171665 61.1454875,12.7983454 Z" id="Shape"></path>
                <path d="M82.1763598,12.8790072 C82.1763598,8.442606 78.6946544,4.97414685 74.187096,4.97414685 C69.841196,4.97414685 66.2782189,8.49638056 66.2782189,12.7714581 C66.2782189,17.073423 69.841196,20.5687694 74.2136457,20.5687694 C78.5596931,20.5687694 82.1763598,17.073423 82.1763598,12.8790072 Z M78.5596931,12.7714581 C78.5596931,15.2719752 76.6163986,17.2885212 74.240933,17.2885212 C71.8116304,17.2885212 69.8951805,15.2719752 69.8951805,12.7176836 C69.8951805,10.2709411 71.8654674,8.25439504 74.2136457,8.25439504 C76.6163986,8.25439504 78.5596931,10.2978283 78.5596931,12.7714581 Z" id="Shape"></path>
                <path d="M90.9938285,8.41571872 L90.9938285,4.97414685 L90.723906,4.97414685 C89.1854952,4.97414685 88.4295646,5.40434333 87.4848358,6.77559462 L87.4848358,5.32368149 L84.1919287,5.32368149 L84.1919287,20.2192347 L87.7813081,20.2192347 L87.7813081,11.9379524 C87.7813081,9.62564633 88.8344484,8.46949328 90.9938285,8.41571872 Z" id="Path"></path>
                <polygon id="Path" points="99.5221998 8.5770424 99.5221998 5.32368149 97.3628198 5.32368149 97.3628198 0.349534643 93.7727029 0.349534643 93.7727029 5.32368149 92.0182065 5.32368149 92.0182065 8.5770424 93.7727029 8.5770424 93.7727029 20.2192347 97.3628198 20.2192347 97.3628198 8.5770424"></polygon>
                <polygon id="Path" points="112.176108 20.2192347 112.176108 18.417787 103.916922 18.417787 103.916922 0.349534643 101.919053 0.349534643 101.919053 20.2192347"></polygon>
                <path d="M128.881804,12.9058945 C128.881804,8.41571872 125.642734,5.16235781 121.2163,5.16235781 C116.843703,5.16235781 113.469671,8.46949328 113.469671,12.7714581 C113.469671,17.2885212 116.789866,20.5687694 121.378548,20.5687694 C125.697308,20.5687694 128.881804,17.3154085 128.881804,12.9058945 Z M126.857385,12.9327818 C126.857385,16.2936918 124.536494,18.7404343 121.323974,18.7404343 C117.923393,18.7404343 115.49409,16.2668046 115.49409,12.8252327 C115.49409,9.49120993 117.949942,6.99069286 121.2163,6.99069286 C124.45537,6.99069286 126.857385,9.51809721 126.857385,12.9327818 Z" id="Shape"></path>
                <path d="M146.488717,17.5842813 L146.488717,5.51189245 L144.490848,5.51189245 L144.490848,8.11995863 C143.006274,6.10341262 141.197941,5.16235781 138.714801,5.16235781 C134.396041,5.16235781 131.156971,8.49638056 131.156971,12.9327818 C131.156971,17.2347466 134.531002,20.5687694 138.849762,20.5687694 C141.49515,20.5687694 143.330033,19.4932782 144.490848,17.2347466 L144.490848,18.229576 C144.490848,22.1013444 142.628677,24.1716649 139.065848,24.1716649 C136.581971,24.1716649 135.151971,23.3381593 133.64011,20.6763185 L131.696816,20.6763185 C132.776506,24.1178904 135.394607,26 139.119685,26 C141.683949,26 143.843329,25.0320579 145.111817,23.3650465 C146.110383,22.0206825 146.488717,20.4612203 146.488717,17.5842813 Z M144.490848,12.6907963 C144.490848,16.1323681 142.061545,18.7404343 138.849762,18.7404343 C135.610692,18.7404343 133.181389,16.1861427 133.181389,12.7714581 C133.181389,9.41054809 135.556855,6.99069286 138.822475,6.99069286 C142.007708,6.99069286 144.490848,9.49120993 144.490848,12.6907963 Z" id="Shape"></path>
                <path d="M151.882742,20.2192347 L151.882742,5.51189245 L149.88561,5.51189245 L149.88561,20.2192347 L151.882742,20.2192347 Z M151.882742,3.89865564 L151.882742,0.510858325 L149.88561,0.510858325 L149.88561,3.89865564 L151.882742,3.89865564 Z" id="Shape"></path>
                <path d="M170,15.8903826 L167.732946,15.8903826 C166.193798,17.9338159 164.763798,18.7404343 162.684805,18.7404343 C159.365348,18.7404343 156.74651,16.1323681 156.74651,12.8790072 C156.74651,9.57187177 159.310774,6.99069286 162.604418,6.99069286 C164.790348,6.99069286 166.598681,8.03929679 167.732946,9.97518097 L169.972713,9.97518097 C168.785349,7.01758014 165.951162,5.16235781 162.630968,5.16235781 C158.204534,5.16235781 154.722091,8.55015512 154.722091,12.8252327 C154.722091,17.2078594 158.231084,20.5687694 162.765929,20.5687694 C165.816201,20.5687694 168.218216,19.2512927 170,15.8903826 Z" id="Path"></path>
            </g>
        </g>
    </g>
</svg>